<?xml version="1.0" encoding="utf-8"?>
<!-- Generator: Adobe Illustrator 24.0.0, SVG Export Plug-In . SVG Version: 6.00 Build 0)  -->
<svg version="1.1" id="Layer_1" xmlns="http://www.w3.org/2000/svg" xmlns:xlink="http://www.w3.org/1999/xlink" x="0px" y="0px"
	 viewBox="0 0 72 72" style="enable-background:new 0 0 72 72;" xml:space="preserve">
<style type="text/css">
	.st0{fill:none;stroke:#FFFFFF;stroke-miterlimit:10;}
	.st1{fill:#5FA4A9;stroke:#FFFFFF;stroke-miterlimit:10;}
</style>
<g>
	<polygon class="st0" points="51.8,40.2 51.8,40.2 51.8,40.2 	"/>
	<polygon class="st0" points="51.8,40.2 51.8,40.2 48.7,26.4 48.7,26.4 	"/>
	<polygon class="st0" points="48.7,26.4 48.7,26.4 48.7,26.4 	"/>
	<polygon class="st0" points="43,51.2 43,51.2 51.8,40.2 51.8,40.2 	"/>
	<polygon class="st0" points="48.7,26.4 36,20.3 23.3,26.4 20.2,40.2 29,51.2 43,51.2 51.8,40.2 	"/>
	<polygon class="st0" points="20.2,40.2 29,51.2 20.2,40.2 	"/>
	<polygon class="st0" points="48.7,26.4 36,20.3 48.7,26.4 	"/>
	<path class="st1" d="M43,51.2L43,51.2l-9.8,12.3c0.9,0.1,1.8,0.1,2.8,0.1c7.5,0,14.4-3,19.3-7.9l-3.5-15.5L43,51.2z"/>
	<path class="st1" d="M63.6,36c0-0.8,0-1.6-0.1-2.4l-14.8-7.1l3.1,13.7v0l3.5,15.5C60.4,50.7,63.6,43.7,63.6,36z"/>
	<polygon class="st1" points="20.2,40.2 20.2,40.2 20.2,40.2 	"/>
	<path class="st1" d="M29,51.2H13c4.5,6.8,11.8,11.4,20.3,12.3L43,51.2H29z"/>
	<path class="st1" d="M20.2,40.2l3.1-13.7L51.2,13c-4.4-2.9-9.6-4.6-15.2-4.6c-3.1,0-6.1,0.5-8.9,1.5L20.2,40.2L20.2,40.2z"/>
	<path class="st1" d="M36,20.3l12.7,6.1l0,0l14.8,7.1C62.7,25,58,17.5,51.2,13L23.3,26.4L36,20.3z"/>
	<path class="st1" d="M20.2,40.2L20.2,40.2l-10.3-13C8.9,30,8.4,32.9,8.4,36c0,5.6,1.7,10.8,4.5,15.2h16L20.2,40.2z"/>
	<path class="st1" d="M27.1,9.9C19,12.7,12.6,19.1,9.9,27.2l10.3,13L27.1,9.9z"/>
</g>
</svg>
